<svg id="Capa_1" enable-background="new 0 0 512.032 512.032" height="512" viewBox="0 0 512.032 512.032" width="512" xmlns="http://www.w3.org/2000/svg"><g id="XMLID_1284_"><g id="XMLID_135_"><path id="XMLID_136_" d="m265.284 232.605-23.296 23.296c-3.905 3.905-3.905 10.237 0 14.143 1.953 1.952 4.512 2.929 7.071 2.929s5.118-.977 7.071-2.929l23.296-23.296c3.905-3.905 3.905-10.237 0-14.143-3.905-3.904-10.236-3.904-14.142 0z"/><path id="XMLID_755_" d="m503.282 76.679c-2.052-5.128-7.873-7.619-12.999-5.571-5.128 2.051-7.622 7.87-5.571 12.999 14.172 35.435 7.383 75.437-17.097 104.123l-143.812-143.813c28.68-24.478 68.685-31.271 104.123-17.097 5.131 2.051 10.946-.444 12.999-5.571 2.051-5.129-.443-10.948-5.571-12.999-43.525-17.406-92.8-8.365-127.26 22.864-12.583-5.845-28.031-3.585-38.397 6.781-6.423 6.422-9.96 14.96-9.96 24.041 0 9.082 3.537 17.62 9.959 24.042l2.755 2.755c-4.302 15.379-5.512 31.102-3.817 46.402l-145.138 173.567c-13.083 15.645-12.074 38.317 2.347 52.738l5.316 5.316-36.455 36.456c-9.88 9.881-15.321 23.017-15.321 36.989 0 13.973 5.441 27.108 15.321 36.988 15.35 15.352 38.115 19.636 57.995 10.918l200.666-87.992c18.139-7.953 38.902-4.042 52.904 9.959 16.623 16.623 16.242 37.762 10.344 52.002s-20.577 29.456-44.085 29.456h-140.984c-5.522 0-10 4.478-10 10 0 5.523 4.478 10 10 10h140.984c27.909 0 51.882-16.018 62.562-41.802 10.681-25.785 5.056-54.063-14.679-73.799-19.873-19.87-49.344-25.416-75.078-14.133l-200.667 87.992c-12.278 5.384-26.339 2.739-35.82-6.744-6.104-6.103-9.464-14.216-9.464-22.846s3.361-16.744 9.464-22.847l36.455-36.456 4.79 4.79c7.65 7.65 17.622 11.525 27.636 11.525 8.862 0 17.758-3.036 25.103-9.179l173.596-145.163c4.442.493 8.919.751 13.414.751 10.981-.001 22.067-1.495 32.965-4.538l2.749 2.749v-.001c6.422 6.423 14.96 9.96 24.042 9.96 9.081 0 17.619-3.537 24.041-9.959 10.366-10.366 12.626-25.815 6.781-38.397 31.23-34.457 40.27-83.734 22.864-127.256zm-313.282 296.515c-7.645 6.391-18.722 5.897-25.766-1.147l-24.249-24.249c-7.046-7.045-7.539-18.122-1.147-25.766l135.199-161.681c5.87 17.713 15.856 34.172 29.664 47.98 13.781 13.782 30.254 23.779 47.997 29.649zm127.844-179.005c-23.494-23.493-33.799-56.149-28.632-88.196l116.821 116.821c-32.05 5.138-64.77-5.206-88.189-28.625zm141.651 34.005c-2.645 2.644-6.159 4.101-9.898 4.101-3.74 0-7.255-1.457-9.899-4.101 0-.001 0-.001 0-.001l-155.86-155.858c-2.644-2.645-4.101-6.159-4.101-9.899 0-3.739 1.457-7.254 4.102-9.898 2.645-2.645 6.16-4.102 9.899-4.102s7.255 1.457 9.899 4.102l155.857 155.857c2.645 2.645 4.102 6.16 4.102 9.899.001 3.739-1.456 7.255-4.101 9.9z"/><path id="XMLID_760_" d="m92 100.032h31.468c29.775 0 54-24.225 54-54 0-5.522-4.478-10-10-10h-58.301c-20.494 0-37.167 16.673-37.167 37.167v57.58c-7.402-5.091-16.357-8.08-26-8.08-25.364 0-46 20.636-46 46s20.636 46 46 46 46-20.636 46-46zm0-26.833c0-9.466 7.701-17.167 17.167-17.167h46.801c-4.28 13.883-17.23 24-32.5 24h-31.468zm-46 121.5c-14.337 0-26-11.663-26-26s11.663-26 26-26 26 11.663 26 26-11.663 26-26 26z"/><path id="XMLID_762_" d="m469.19 52.842c2.63 0 5.21-1.069 7.07-2.93 1.86-1.86 2.93-4.44 2.93-7.07s-1.069-5.21-2.93-7.069c-1.86-1.86-4.44-2.931-7.07-2.931s-5.21 1.07-7.069 2.931c-1.86 1.859-2.931 4.439-2.931 7.069s1.07 5.21 2.931 7.07c1.858 1.861 4.439 2.93 7.069 2.93z"/></g></g></svg>