<svg id="_x33_0" enable-background="new 0 0 64 64" height="512" viewBox="0 0 64 64" width="512" xmlns="http://www.w3.org/2000/svg"><g><circle cx="46" cy="25" r="1"/><path d="m61.287 19.384-.587-.783c-2.63-3.507-6.817-5.601-11.2-5.601h-4.5c-.68 0-1.301.236-1.805.619-.567-.758-1.387-1.314-2.343-1.523 1.295-.904 2.148-2.4 2.148-4.096 0-2.655-2.087-4.813-4.704-4.97l-1.379-.689c-1.753-.877-3.718-1.341-5.681-1.341-2.964 0-5.852 1.045-8.131 2.944l-.463.386c-1.679 1.399-2.642 3.455-2.642 5.641 0 .791.127 1.573.377 2.322l.438 1.314c-.216.287-.397.598-.531.937-.887-1.514-2.513-2.544-4.391-2.544h-2.783c-3.54 0-6.892 1.541-9.194 4.229-1.88 2.194-2.916 4.992-2.916 7.88v.412c0 2.503 1.09 4.873 2.993 6.504l4.325 3.679-.267 1.867c-2.096 2.292-3.051 5.836-3.051 8.429v1 17h16 1 20 1 16v-17-1c0-2.593-.955-6.137-3.051-8.428l-.257-1.8 4.318-3.748c1.9-1.629 2.99-3.999 2.99-6.502 0-1.842-.608-3.667-1.713-5.138zm-19.287 31.616h-6c0-1.137-.482-2.158-1.245-2.887l5.847-3.508c2.096-1.258 3.398-3.558 3.398-6.002v-1.603h-2v1.603c0 1.746-.93 3.389-2.428 4.288l-3.427 2.056-1.123-7.865.553-1.771 2.19 1.314 1.092-7.207 1.876.268c.257.037.51.097.762.157.15.091.317.157.505.157h1c0 2.967 2.167 5.431 5 5.91v2.361c-.961.524-1.854 1.169-2.631 1.946-2.173 2.173-3.369 5.061-3.369 8.133zm-7 6c-1.103 0-2-.897-2-2 0-.049.009-.097.012-.146 1.036-.273 1.901-.946 2.429-1.85h1.558v3.996zm-15-20v4.872c-.401-.586-.855-1.142-1.369-1.656-.777-.776-1.67-1.421-2.631-1.946v-2.36c2.833-.478 5-2.942 5-5.91h1c.188 0 .355-.066.505-.157.252-.06.504-.12.761-.157l1.876-.268 1.092 7.207 2.19-1.314.553 1.771-1.987 13.918h-4.99v-14zm-10.585-9c-.268-.268-.415-.622-.415-1 0-.552.449-1 1-1h.48l2.499-3.123c.425-.532.96-.966 1.559-1.286.467.257 1.003.409 1.569.409 1.103 0 2.111-.38 2.93-.998.736 1.419 1.748 3.886 1.933 6.998h-.97c-.552 0-1 .447-1 1v1c0 .347-.058.678-.142 1h-.622c-.998 0-1.895-.555-2.341-1.447l-1.789.895c.701 1.402 2.034 2.326 3.56 2.513-.71.639-1.638 1.039-2.666 1.039h-3v2h2v1.412c-.116-.037-.226-.089-.342-.122l-3.545-1.012.947-6.631zm14.585-10c-1.103 0-2-.897-2-2s.897-2 2-2zm0 2h.263c.52 2.007 1.796 3.708 3.511 4.78l-.581 2.325-4.21.601c-.015.002-.03.007-.045.009-.265-3.912-1.647-6.861-2.518-8.347.163-.31.294-.637.388-.981.731.973 1.884 1.613 3.192 1.613zm11-7h2.698c.2.728.302 1.477.302 2.236v2.764c0 3.309-2.691 6-6 6s-6-2.691-6-6v-4.969c0-.822.493-1.552 1.219-1.842l2.73-.964c1.067 1.666 2.93 2.775 5.051 2.775zm5 7c.868 0 1.667-.285 2.324-.757.13.322.306.622.511.907-.508 1.188-1.567 4.042-1.789 7.562-.01-.001-.019-.005-.029-.006l-4.209-.601-.581-2.325c1.715-1.073 2.991-2.773 3.511-4.78zm-8 33c-1.103 0-2-.897-2-2s.897-2 2-2 2 .897 2 2-.897 2-2 2zm.619-5.937c-.203-.032-.407-.063-.619-.063-.976 0-1.859.365-2.554.947l1.421-9.947h2.265l1.152 8.063zm-.619-21.063c.828 0 1.627-.127 2.379-.361l.514 2.055-2.893 2.892-2.893-2.893.514-2.055c.752.235 1.551.362 2.379.362zm-4.354 3.06 2.741 2.741-2.622 1.574-.642-4.24zm5.619 6.94h-2.53l-.546-1.747 1.811-1.087 1.811 1.086zm.348-4.199 2.741-2.741.524.075-.642 4.24zm-20.505 7.412c.482.138.946.327 1.398.538l-.836 1.673-3.742-3.119zm15.448 13.787c.528.906 1.394 1.581 2.431 1.854.004.049.013.097.013.146 0 1.103-.897 2-2 2h-2v-4zm22.335-13.786 3.18-.908-3.742 3.118-.836-1.672c.453-.212.916-.4 1.398-.538zm3.695-11.214-1.646 1.646.947 6.632-3.546 1.013c-.116.033-.226.085-.341.122v-1.413h2v-2h-3c-1.028 0-1.956-.4-2.666-1.04 1.526-.187 2.859-1.111 3.56-2.513l-1.789-.895c-.446.893-1.343 1.448-2.341 1.448h-.622c-.084-.322-.142-.653-.142-1v-1c0-.553-.448-1-1-1h-.972c.178-3.215 1.157-5.89 1.621-7h2.467c1.527 0 2.95.684 3.904 1.877l2.5 3.123h.48c.551 0 1 .448 1 1 0 .378-.147.732-.414 1zm-12.586-12c0 1.103-.897 2-2 2v-2.764c0-.415-.033-.827-.082-1.236h.082c1.103 0 2 .897 2 2zm-18.077-10.134.463-.386c1.92-1.6 4.354-2.48 6.852-2.48 1.385 0 2.764.289 4.046.813-1.371.893-2.284 2.432-2.284 4.187h2c0-1.654 1.346-3 3-3s3 1.346 3 3-1.346 3-3 3h-3c-2.206 0-4-1.794-4-4h-2c0 .476.062.936.167 1.38l-2.652.937c-1.198.479-2.055 1.481-2.373 2.683h-.142c-.535 0-1.045.11-1.512.301l-.214-.641c-.182-.545-.274-1.113-.274-1.689 0-1.59.701-3.086 1.923-4.105zm-18.631 23.638c-1.457-1.248-2.292-3.064-2.292-4.983v-.412c0-2.411.864-4.747 2.434-6.579 1.923-2.243 4.72-3.53 7.676-3.53h2.783c1.713 0 3.107 1.394 3.107 3.107 0 1.595-1.298 2.893-2.893 2.893-.493 0-.937-.278-1.054-.662-.139-.454.029-.778.142-.931.191-.259.484-.407.805-.407h1v-2h-1c-.948 0-1.85.455-2.414 1.218-.573.775-.736 1.762-.446 2.706.015.049.039.093.057.14-.674.419-1.282.941-1.78 1.563l-1.934 2.417c-1.408.246-2.483 1.477-2.483 2.956 0 .911.355 1.769 1 2.414l.939.939-.287 2.009zm1.708 15.496c0-1.843.52-3.823 1.355-5.402l5.974 4.978 1.899-3.797c.347.262.68.544.989.852 1.795 1.795 2.783 4.181 2.783 6.719v2.65h-4.382l-2.724-5.447-1.789.895 2.724 5.447c.341.681 1.026 1.105 1.789 1.105h9.382v4h-9.323c-2.581 0-4.939-1.307-6.307-3.496-1.705-2.728-2.37-4.832-2.37-7.504zm0 16v-7.576c.207.373.43.752.673 1.141 1.737 2.777 4.729 4.435 8.004 4.435h4.323v2zm15 0v-2h7c1.2 0 2.266-.542 3-1.382.734.84 1.8 1.382 3 1.382h7v2zm35 0h-13v-2h4.323c3.275 0 6.267-1.658 8.003-4.436.243-.389.466-.768.673-1.141v7.577zm0-15c0 2.672-.665 4.776-2.37 7.504-1.368 2.189-3.726 3.496-6.307 3.496h-9.323v-3.997l9.382-.003c.763 0 1.448-.424 1.789-1.105l2.724-5.447-1.789-.895-2.724 5.447h-4.382v-2.65c0-2.538.988-4.924 2.783-6.719.309-.308.641-.59.989-.852l1.899 3.797 5.974-4.978c.835 1.579 1.355 3.559 1.355 5.402zm1.703-16.491-3.348 2.907-.295-2.062.94-.94c.645-.646 1-1.503 1-2.414 0-1.479-1.075-2.71-2.484-2.956l-1.934-2.417c-1.335-1.669-3.328-2.627-5.466-2.627h-2.65c-.298-.41-.466-.898-.466-1.414v-1.586c0-.552.449-1 1-1h4.5c3.757 0 7.346 1.795 9.6 4.8l.587.784c.847 1.128 1.313 2.526 1.313 3.937 0 1.919-.835 3.735-2.297 4.988z"/><circle cx="18" cy="25" r="1"/><circle cx="29" cy="16" r="1"/><circle cx="35" cy="16" r="1"/><path d="m29.895 18.553-1.789.895.105.211c.722 1.444 2.174 2.341 3.789 2.341s3.067-.897 3.789-2.342l.105-.211-1.789-.895-.105.212c-.381.762-1.147 1.236-2 1.236s-1.619-.474-2-1.236z"/></g></svg>